<svg xmlns="http://www.w3.org/2000/svg" viewBox="0 0 1200 700">
  <rect width="1200" height="700" fill="#eef4f0"/>
  <path d="M0 475 C140 430 190 300 340 330 S545 520 705 455 930 250 1200 290" fill="none" stroke="#8fd19e" stroke-width="34" stroke-linecap="round"/>
  <path d="M0 330 C160 265 270 260 395 180 S675 110 820 210 1010 405 1200 335" fill="none" stroke="#68c37a" stroke-width="24" stroke-linecap="round"/>
  <path d="M120 0 L315 700 M600 0 L540 700 M930 0 L760 700" stroke="#d5d8d2" stroke-width="18"/>
  <path d="M0 170 L1200 80 M0 610 L1200 530" stroke="#c9cdc6" stroke-width="14"/>
  <g fill="#ba78b6" fill-opacity="0.72" stroke="#fff" stroke-width="5">
    <circle cx="455" cy="300" r="58"/>
    <circle cx="575" cy="378" r="44"/>
    <circle cx="702" cy="270" r="36"/>
    <circle cx="820" cy="355" r="52"/>
    <circle cx="360" cy="420" r="30"/>
    <circle cx="930" cy="245" r="34"/>
    <circle cx="1010" cy="400" r="22"/>
    <circle cx="260" cy="250" r="20"/>
  </g>
  <rect x="0" y="590" width="400" height="110" fill="steelblue"/>
  <rect x="400" y="590" width="400" height="110" fill="#ba78b6"/>
  <rect x="800" y="590" width="400" height="110" fill="darkorange"/>
  <g fill="white" font-family="system-ui, sans-serif" font-size="38" font-weight="700">
    <text x="36" y="657">More departures</text>
    <text x="518" y="657">Balanced</text>
    <text x="895" y="657">More arrivals</text>
  </g>
</svg>
